<svg xmlns="http://www.w3.org/2000/svg" version="1.1" width="548.169"
     height="548.169" style="enable-background:new 0 0 548.169 548.169;" xml:space="preserve"><rect id="backgroundrect" width="100%" height="100%" x="0" y="0" fill="none" stroke="none"/>


    <g class="currentLayer" style=""><title>Layer 1</title>
        <g id="svg_1" class="selected" fill-opacity="1" fill="#f4f4f4">
	<g id="svg_2" fill="#f4f4f4">
		<path d="M110.19579761886597,165.5755954761505 c20.179,0 37.402,-7.135 51.674,-21.411 c14.277,-14.275 21.416,-31.503 21.416,-51.678 c0,-20.173 -7.139,-37.401 -21.416,-51.678 c-14.272,-14.275 -31.496,-21.414 -51.674,-21.414 c-20.177,0 -37.401,7.139 -51.676,21.414 C44.245797618865964,55.085595476150516 37.10679761886597,72.30959547615052 37.10679761886597,92.48659547615051 c0,20.179 7.139,37.403 21.413,51.678 C72.79479761886597,158.4365954761505 90.01879761886596,165.5755954761505 110.19579761886597,165.5755954761505 z"
              id="svg_3" fill="#f4f4f4"/>
        <path d="M197.13079761886596,279.6425954761505 c21.413,21.406 47.248,32.114 77.516,32.114 c30.269,0 56.103,-10.708 77.515,-32.114 c21.409,-21.42 32.117,-47.258 32.117,-77.52 c0,-30.264 -10.708,-56.101 -32.117,-77.515 c-21.412,-21.414 -47.246,-32.121 -77.515,-32.121 c-30.268,0 -56.105,10.709 -77.516,32.121 c-21.411,21.411 -32.12,47.248 -32.12,77.515 S175.71979761886595,258.2255954761505 197.13079761886596,279.6425954761505 z"
              id="svg_4" fill="#f4f4f4"/>
        <path d="M439.104797618866,165.5755954761505 c20.17,0 37.397,-7.135 51.671,-21.411 c14.274000000000001,-14.275 21.409,-31.503 21.409,-51.678 c0,-20.173 -7.135,-37.401 -21.409,-51.678 c-14.273,-14.275 -31.501,-21.414 -51.671,-21.414 c-20.184,0 -37.407,7.139 -51.682,21.414 c-14.271,14.277 -21.409,31.501 -21.409,51.678 c0,20.179 7.139,37.403 21.409,51.678 C401.697797618866,158.4365954761505 418.92079761886595,165.5755954761505 439.104797618866,165.5755954761505 z"
              id="svg_5" fill="#f4f4f4"/>
        <path d="M513.324797618866,165.5795954761505 c-1.1360000000000001,0 -5.276,1.999 -12.415,5.996 c-7.132,3.999 -16.416,8.044 -27.833,12.137 c-11.416,4.089 -22.747,6.136 -33.972,6.136 c-12.758000000000001,0 -25.406,-2.187 -37.973,-6.567 c0.9450000000000002,7.039 1.424,13.322 1.424,18.842 c0,26.457 -7.71,50.819 -23.134,73.089 c30.841,0.9550000000000002 56.056,13.134 75.668,36.552 h38.256 c15.605,0 28.739,-3.863 39.396,-11.57 c10.657,-7.703 15.989,-18.986 15.989,-33.83 C548.733797618866,199.1705954761505 536.9377976188659,165.5755954761505 513.324797618866,165.5795954761505 z"
              id="svg_6" fill="#f4f4f4"/>
        <path d="M470.65779761886597,396.4075954761505 c-1.999,-11.136 -4.524,-21.464 -7.57,-30.978 c-3.046,-9.521 -7.139,-18.794 -12.271,-27.836 c-5.141,-9.034 -11.044,-16.748 -17.706,-23.127 c-6.667,-6.3790000000000004 -14.805,-11.464 -24.414,-15.276 c-9.609,-3.806 -20.225,-5.708 -31.833,-5.708 c-1.9060000000000001,0 -5.996,2.047 -12.278,6.14 c-6.283,4.089 -13.224,8.665000000000001 -20.841,13.702 c-7.615,5.037 -17.789,9.609 -30.55,13.702 c-12.762,4.093 -25.608,6.14 -38.544,6.14 c-12.941,0 -25.791,-2.047 -38.544,-6.14 c-12.756,-4.093 -22.936,-8.665000000000001 -30.55,-13.702 c-7.616,-5.037 -14.561,-9.613 -20.841,-13.702 c-6.283,-4.093 -10.373,-6.14 -12.279,-6.14 c-11.609,0 -22.22,1.9020000000000001 -31.833,5.708 c-9.613,3.8120000000000003 -17.749,8.897 -24.41,15.276 c-6.667,6.372 -12.562,14.093 -17.705,23.127 c-5.1370000000000005,9.042 -9.229,18.315 -12.275,27.836 c-3.045,9.514 -5.564,19.842 -7.566,30.978 c-2,11.136 -3.331,21.505 -3.997,31.121 c-0.6670000000000003,9.613 -0.999,19.466 -0.999,29.554 c0,22.836 6.945,40.874 20.839,54.098 c13.899000000000001,13.223 32.363,19.842 55.389,19.842 h249.535 c23.028,0 41.49,-6.619 55.392,-19.842 c13.894,-13.224 20.841,-31.262 20.841,-54.098 c0,-10.088 -0.3350000000000002,-19.938 -0.992,-29.554 C473.979797618866,417.9125954761505 472.64879761886596,407.5425954761505 470.65779761886597,396.4075954761505 z"
              id="svg_7" fill="#f4f4f4"/>
        <path d="M169.86479761886596,275.21159547615053 c-15.418,-22.27 -23.125,-46.632 -23.122,-73.089 c0,-5.52 0.4770000000000001,-11.799 1.427,-18.842 c-12.564,4.377 -25.221,6.567 -37.974,6.567 c-11.23,0 -22.552,-2.046 -33.974,-6.136 c-11.417,-4.093 -20.699,-8.138 -27.834,-12.137 c-7.138,-3.997 -11.281,-5.996 -12.422,-5.996 C12.362797618865967,165.5795954761505 0.5617976188659668,199.1745954761505 0.5617976188659668,266.3635954761505 c0,14.844 5.33,26.127 15.987,33.83 c10.66,7.707 23.794,11.563 39.397,11.563 h38.26 C113.81279761886597,288.3455954761505 139.02879761886598,276.1655954761505 169.86479761886596,275.21159547615053 z"
              id="svg_8" fill="#f4f4f4"/>
	</g>
</g>
        <g id="svg_9">
</g>
        <g id="svg_10">
</g>
        <g id="svg_11">
</g>
        <g id="svg_12">
</g>
        <g id="svg_13">
</g>
        <g id="svg_14">
</g>
        <g id="svg_15">
</g>
        <g id="svg_16">
</g>
        <g id="svg_17">
</g>
        <g id="svg_18">
</g>
        <g id="svg_19">
</g>
        <g id="svg_20">
</g>
        <g id="svg_21">
</g>
        <g id="svg_22">
</g>
        <g id="svg_23">
</g></g></svg>