<svg xmlns="http://www.w3.org/2000/svg" xmlns:xlink="http://www.w3.org/1999/xlink" version="1.1" width="475.082" height="475.082" style="enable-background:new 0 0 475.082 475.082;" xml:space="preserve"><rect id="backgroundrect" width="100%" height="100%" x="0" y="0" fill="none" stroke="none"/>
















<g class="currentLayer" style=""><title>Layer 1</title><g id="svg_1" class="selected" fill-opacity="1" fill="#f4f4f4">
	<g id="svg_2" fill="#f4f4f4">
		<path d="M182.725,36.542H36.547c-9.9,0-18.464,3.619-25.697,10.854C3.617,54.62,0,63.192,0,73.087v109.636    c0,9.897,3.617,18.464,10.85,25.693c7.232,7.236,15.796,10.854,25.697,10.854h146.178c9.9,0,18.464-3.621,25.697-10.854    c7.233-7.229,10.85-15.796,10.85-25.693V73.087c0-9.895-3.617-18.464-10.85-25.692C201.189,40.158,192.622,36.542,182.725,36.542z    " id="svg_3" fill="#f4f4f4"/>
		<path d="M182.725,255.813H36.547c-9.9,0-18.464,3.621-25.697,10.852C3.617,273.896,0,282.462,0,292.358v109.636    c0,9.897,3.617,18.467,10.85,25.694c7.232,7.234,15.796,10.852,25.697,10.852h146.178c9.9,0,18.464-3.617,25.697-10.852    c7.233-7.228,10.85-15.797,10.85-25.694V292.358c0-9.896-3.617-18.462-10.85-25.693    C201.189,259.428,192.622,255.813,182.725,255.813z" id="svg_4" fill="#f4f4f4"/>
		<path d="M464.23,47.396c-7.225-7.238-15.797-10.854-25.694-10.854H292.355c-9.896,0-18.463,3.619-25.693,10.854    c-7.234,7.224-10.852,15.797-10.852,25.692v109.636c0,9.897,3.617,18.464,10.852,25.693c7.23,7.236,15.797,10.854,25.693,10.854    h146.181c9.897,0,18.47-3.621,25.694-10.854c7.234-7.229,10.852-15.796,10.852-25.693V73.087    C475.082,63.192,471.467,54.626,464.23,47.396z" id="svg_5" fill="#f4f4f4"/>
		<path d="M438.536,255.813H292.355c-9.896,0-18.463,3.621-25.693,10.852c-7.234,7.231-10.852,15.797-10.852,25.693v109.636    c0,9.897,3.617,18.467,10.852,25.694c7.23,7.234,15.797,10.852,25.693,10.852h146.181c9.897,0,18.47-3.617,25.694-10.852    c7.234-7.228,10.852-15.797,10.852-25.694V292.358c0-9.896-3.614-18.462-10.852-25.693    C457.005,259.428,448.44,255.813,438.536,255.813z" id="svg_6" fill="#f4f4f4"/>
	</g>
</g><g id="svg_7">
</g><g id="svg_8">
</g><g id="svg_9">
</g><g id="svg_10">
</g><g id="svg_11">
</g><g id="svg_12">
</g><g id="svg_13">
</g><g id="svg_14">
</g><g id="svg_15">
</g><g id="svg_16">
</g><g id="svg_17">
</g><g id="svg_18">
</g><g id="svg_19">
</g><g id="svg_20">
</g><g id="svg_21">
</g></g></svg>