<svg xmlns="http://www.w3.org/2000/svg" xmlns:xlink="http://www.w3.org/1999/xlink" version="1.1" width="460.298" height="460.297" style="enable-background:new 0 0 460.298 460.297;" xml:space="preserve"><rect id="backgroundrect" width="100%" height="100%" x="0" y="0" fill="none" stroke="none"/>
















<g class="currentLayer" style=""><title>Layer 1</title><g id="svg_1" class="" fill-opacity="1" fill="#24282e">
	<g id="svg_2" fill="#24282e" fill-opacity="1">
		<path d="M229.58720226192474,120.939 L65.42420226192475,256.274 c0,0.19100000000000003 -0.04800000000000001,0.47200000000000003 -0.14400000000000002,0.8550000000000001 c-0.09400000000000003,0.38000000000000006 -0.14400000000000002,0.6560000000000001 -0.14400000000000002,0.8520000000000001 v137.041 c0,4.948 1.8090000000000002,9.236 5.426,12.847 c3.616,3.613 7.898,5.431 12.847,5.431 h109.63 V303.664 h73.097 v109.64 h109.629 c4.948,0 9.236,-1.814 12.847,-5.4350000000000005 c3.617,-3.607 5.432,-7.898 5.432,-12.847 V257.981 c0,-0.7600000000000001 -0.10400000000000001,-1.334 -0.28800000000000003,-1.707 L229.58720226192474,120.939 z" id="svg_3" fill="#24282e" fill-opacity="1"/>
		<path d="M456.56020226192476,225.438 L394.03820226192477,173.476 V56.989 c0,-2.6630000000000003 -0.8560000000000001,-4.853 -2.574,-6.567 c-1.7040000000000002,-1.7120000000000002 -3.894,-2.568 -6.563,-2.568 h-54.816 c-2.6660000000000004,0 -4.855,0.8560000000000001 -6.57,2.568 c-1.711,1.714 -2.566,3.9050000000000002 -2.566,6.567 v55.673 l-69.662,-58.245 c-6.084,-4.949 -13.318,-7.423 -21.694,-7.423 c-8.375,0 -15.608,2.474 -21.698,7.423 L2.610202261924744,225.438 c-1.903,1.52 -2.946,3.566 -3.14,6.136 c-0.19300000000000003,2.568 0.47200000000000003,4.811 1.9969999999999999,6.713 l17.701,21.128 c1.525,1.7120000000000002 3.521,2.7590000000000003 5.996,3.142 c2.285,0.19200000000000003 4.57,-0.47600000000000003 6.855,-1.998 L229.58720226192474,95.817 l197.57,164.741 c1.526,1.328 3.521,1.991 5.996,1.991 h0.8580000000000001 c2.471,-0.37600000000000006 4.463,-1.4300000000000002 5.996,-3.138 l17.703,-21.125 c1.522,-1.9060000000000001 2.189,-4.145 1.991,-6.716 C459.5062022619247,229.007 458.45920226192476,226.961 456.56020226192476,225.438 z" id="svg_4" fill="#24282e" fill-opacity="1"/>
	</g>
</g><g id="svg_5">
</g><g id="svg_6">
</g><g id="svg_7">
</g><g id="svg_8">
</g><g id="svg_9">
</g><g id="svg_10">
</g><g id="svg_11">
</g><g id="svg_12">
</g><g id="svg_13">
</g><g id="svg_14">
</g><g id="svg_15">
</g><g id="svg_16">
</g><g id="svg_17">
</g><g id="svg_18">
</g><g id="svg_19">
</g></g></svg>