<svg xmlns="http://www.w3.org/2000/svg" xmlns:xlink="http://www.w3.org/1999/xlink" version="1.1" width="475.085" height="475.085" style="enable-background:new 0 0 475.085 475.085;" xml:space="preserve"><rect id="backgroundrect" width="100%" height="100%" x="0" y="0" fill="none" stroke="none"/>
















<g class="currentLayer" style=""><title>Layer 1</title><g id="svg_1" class="selected" fill-opacity="1" fill="#f4f4f4">
	<g id="svg_2" fill="#f4f4f4">
		<path d="M238.10679773807524,255.816 c9.899000000000001,0 18.468,-3.609 25.696,-10.848 c7.23,-7.229 10.854,-15.799 10.854,-25.694 V36.547 c0,-9.9 -3.62,-18.464 -10.854,-25.693 C256.57579773807527,3.617 248.00579773807524,0 238.10679773807524,0 c-9.9,0 -18.464,3.621 -25.697,10.854 c-7.233,7.229 -10.85,15.797 -10.85,25.693 v182.728 c0,9.895 3.617,18.464 10.85,25.694 C219.64279773807525,252.207 228.20979773807525,255.816 238.10679773807524,255.816 z" id="svg_3" fill="#f4f4f4"/>
		<path d="M434.39779773807527,157.887 c-15.325,-30.642 -36.878,-56.339 -64.666,-77.084 c-7.994,-6.09 -17.035,-8.47 -27.123,-7.139 c-10.089,1.3330000000000002 -18.083,6.091 -23.983,14.273 c-6.091,7.993 -8.418,16.986 -6.994,26.979 c1.423,9.998 6.139,18.037 14.133,24.128 c18.645,14.084 33.072,31.312 43.25,51.678 c10.184,20.364 15.27,42.065 15.27,65.091 c0,19.801 -3.854,38.688 -11.561,56.678 c-7.706,17.987 -18.13,33.544 -31.265,46.679 c-13.135,13.131 -28.688,23.551 -46.678,31.261 c-17.987,7.71 -36.878,11.57 -56.673,11.57 c-19.792,0 -38.684,-3.8600000000000003 -56.671,-11.57 c-17.989,-7.71 -33.547,-18.13 -46.682,-31.261 c-13.129,-13.135 -23.551,-28.691 -31.261,-46.679 c-7.708,-17.99 -11.563,-36.877 -11.563,-56.678 c0,-23.026 5.092,-44.724 15.274000000000001,-65.091 c10.183,-20.364 24.601,-37.591 43.253,-51.678 c7.994,-6.095 12.703,-14.133 14.133,-24.128 c1.427,-9.989 -0.903,-18.986 -6.995,-26.979 c-5.901,-8.182 -13.844,-12.941 -23.839,-14.273 c-9.994,-1.332 -19.085,1.049 -27.268,7.139 c-27.792,20.745 -49.344,46.442 -64.669,77.084 c-15.324,30.646 -22.983,63.288 -22.983,97.927 c0,29.697 5.806,58.054 17.415,85.082 c11.613,27.028 27.218,50.34 46.826,69.948 c19.602,19.603 42.919,35.215 69.949,46.815 c27.028,11.615 55.388,17.426 85.08,17.426 c29.693,0 58.052,-5.811 85.081,-17.426 c27.031,-11.604 50.347,-27.213 69.952,-46.815 c19.602,-19.602 35.207,-42.92 46.818,-69.948 s17.412,-55.392 17.412,-85.082 C457.3707977380753,221.174 449.7217977380753,188.532 434.39779773807527,157.887 z" id="svg_4" fill="#f4f4f4"/>
	</g>
</g><g id="svg_5">
</g><g id="svg_6">
</g><g id="svg_7">
</g><g id="svg_8">
</g><g id="svg_9">
</g><g id="svg_10">
</g><g id="svg_11">
</g><g id="svg_12">
</g><g id="svg_13">
</g><g id="svg_14">
</g><g id="svg_15">
</g><g id="svg_16">
</g><g id="svg_17">
</g><g id="svg_18">
</g><g id="svg_19">
</g></g></svg>