<svg xmlns="http://www.w3.org/2000/svg" xmlns:xlink="http://www.w3.org/1999/xlink" version="1.1" width="511.626" height="511.626" style="enable-background:new 0 0 511.626 511.626;" xml:space="preserve"><rect id="backgroundrect" width="100%" height="100%" x="0" y="0" fill="none" stroke="none"/>
















<g class="currentLayer" style=""><title>Layer 1</title><g id="svg_1" class="selected" fill-opacity="1" fill="#24282e">
	<g id="svg_2" fill="#24282e">
		<path d="M49.66779773807526,178.729 c6.472,4.567 25.981,18.131 58.528,40.685 c32.548,22.554 57.482,39.92 74.803,52.099 c1.903,1.335 5.946,4.237 12.131,8.71 c6.186,4.476 11.326,8.093 15.416,10.852 c4.093,2.758 9.041,5.852 14.849,9.277 c5.806,3.422 11.279,5.996 16.418,7.7 c5.14,1.718 9.898,2.569 14.275,2.569 h0.28700000000000003 h0.28800000000000003 c4.377,0 9.137,-0.8520000000000001 14.277,-2.569 c5.1370000000000005,-1.7040000000000002 10.615,-4.281 16.416,-7.7 c5.804,-3.4290000000000003 10.752,-6.52 14.845,-9.277 c4.093,-2.7590000000000003 9.229,-6.376 15.417,-10.852 c6.184,-4.477 10.232,-7.375 12.135,-8.71 c17.508,-12.179 62.051,-43.11 133.615,-92.79 c13.894,-9.703 25.502,-21.411 34.827,-35.116 c9.332,-13.699 13.993,-28.07 13.993,-43.105 c0,-12.564 -4.523,-23.319 -13.565,-32.264 c-9.041,-8.947 -19.749,-13.418 -32.117,-13.418 H46.24079773807526 c-14.655,0 -25.933,4.948 -33.832,14.844 C4.510797738075256,79.562 0.5617977380752563,91.934 0.5617977380752563,106.779 c0,11.991 5.236,24.985 15.703,38.974 C26.730797738075257,159.743 37.86879773807526,170.736 49.66779773807526,178.729 z" id="svg_3" fill="#24282e"/>
		<path d="M483.63379773807526,209.275 c-62.424,42.251 -109.824,75.087 -142.177,98.501 c-10.849,7.991 -19.65,14.229 -26.409,18.699 c-6.759,4.473 -15.748,9.041 -26.98,13.702 c-11.228,4.668 -21.692,6.995 -31.401,6.995 h-0.29100000000000004 h-0.28700000000000003 c-9.707,0 -20.177,-2.327 -31.405,-6.995 c-11.228,-4.6610000000000005 -20.223,-9.229 -26.98,-13.702 c-6.755,-4.47 -15.559,-10.708 -26.407,-18.699 c-25.697,-18.842 -72.995,-51.68 -141.896,-98.501 C18.548797738075255,202.047 8.936797738075256,193.762 0.5617977380752563,184.437 v226.685 c0,12.57 4.471,23.319 13.418,32.265 c8.945,8.949 19.701,13.422 32.264,13.422 h420.266 c12.56,0 23.315,-4.473 32.261,-13.422 c8.949,-8.949 13.418,-19.694 13.418,-32.265 V184.437 C504.00279773807523,193.569 494.4887977380753,201.854 483.63379773807526,209.275 z" id="svg_4" fill="#24282e"/>
	</g>
</g><g id="svg_5">
</g><g id="svg_6">
</g><g id="svg_7">
</g><g id="svg_8">
</g><g id="svg_9">
</g><g id="svg_10">
</g><g id="svg_11">
</g><g id="svg_12">
</g><g id="svg_13">
</g><g id="svg_14">
</g><g id="svg_15">
</g><g id="svg_16">
</g><g id="svg_17">
</g><g id="svg_18">
</g><g id="svg_19">
</g></g></svg>