<svg width="20" height="23" viewBox="0 0 20 23" fill="none" xmlns="http://www.w3.org/2000/svg">
<path d="M3.75 0C1.67893 0 0 1.67893 0 3.75H20C20 1.67893 18.3211 0 16.25 0H3.75Z" fill="#24282E"/>
<path d="M3.75 10C1.67893 10 0 8.32107 0 6.25H20C20 8.32107 18.3211 10 16.25 10H3.75Z" fill="#24282E"/>
<path d="M3.75 12.5C1.67893 12.5 0 14.1789 0 16.25H20C20 14.1789 18.3211 12.5 16.25 12.5H3.75Z" fill="#24282E"/>
<path d="M3.75 22.5C1.67893 22.5 0 20.8211 0 18.75H20C20 20.8211 18.3211 22.5 16.25 22.5H3.75Z" fill="#24282E"/>
</svg>
