<svg xmlns="http://www.w3.org/2000/svg" xmlns:xlink="http://www.w3.org/1999/xlink" version="1.1" width="548.176" height="548.176" style="" xml:space="preserve"><rect id="backgroundrect" width="100%" height="100%" x="0" y="0" fill="none" stroke="none"/>
















<g class="currentLayer" style=""><title>Layer 1</title><g id="svg_1" class="selected" fill="#24282e" fill-opacity="1">
	<g id="svg_2" fill="#24282e" fill-opacity="1">
		<path d="M534.75,68.238c-8.945-8.945-19.694-13.417-32.261-13.417H45.681c-12.562,0-23.313,4.471-32.264,13.417    C4.471,77.185,0,87.936,0,100.499v347.173c0,12.566,4.471,23.318,13.417,32.264c8.951,8.946,19.702,13.419,32.264,13.419h456.815    c12.56,0,23.312-4.473,32.258-13.419c8.945-8.945,13.422-19.697,13.422-32.264V100.499    C548.176,87.936,543.699,77.185,534.75,68.238z M511.623,447.672c0,2.478-0.899,4.613-2.707,6.427    c-1.81,1.8-3.952,2.703-6.427,2.703H45.681c-2.473,0-4.615-0.903-6.423-2.703c-1.807-1.813-2.712-3.949-2.712-6.427V100.495    c0-2.474,0.902-4.611,2.712-6.423c1.809-1.803,3.951-2.708,6.423-2.708h456.815c2.471,0,4.613,0.905,6.42,2.708    c1.801,1.812,2.707,3.949,2.707,6.423V447.672L511.623,447.672z" id="svg_3" fill="#24282e" fill-opacity="1"/>
		<path d="M127.91,237.541c15.229,0,28.171-5.327,38.831-15.987c10.657-10.66,15.987-23.601,15.987-38.826    c0-15.23-5.333-28.171-15.987-38.832c-10.66-10.656-23.603-15.986-38.831-15.986c-15.227,0-28.168,5.33-38.828,15.986    c-10.656,10.66-15.986,23.601-15.986,38.832c0,15.225,5.327,28.169,15.986,38.826C99.742,232.211,112.683,237.541,127.91,237.541z    " id="svg_4" fill="#24282e" fill-opacity="1"/>
		<polygon points="210.134,319.765 164.452,274.088 73.092,365.447 73.092,420.267 475.085,420.267 475.085,292.36 356.315,173.587       " id="svg_5" fill="#24282e" fill-opacity="1"/>
	</g>
</g><g id="svg_6">
</g><g id="svg_7">
</g><g id="svg_8">
</g><g id="svg_9">
</g><g id="svg_10">
</g><g id="svg_11">
</g><g id="svg_12">
</g><g id="svg_13">
</g><g id="svg_14">
</g><g id="svg_15">
</g><g id="svg_16">
</g><g id="svg_17">
</g><g id="svg_18">
</g><g id="svg_19">
</g><g id="svg_20">
</g></g></svg>