<svg xmlns="http://www.w3.org/2000/svg" xmlns:xlink="http://www.w3.org/1999/xlink" version="1.1" width="475.082" height="475.082" style="enable-background:new 0 0 475.082 475.082;" xml:space="preserve"><rect id="backgroundrect" width="100%" height="100%" x="0" y="0" fill="none" stroke="none"/>
















<g class="currentLayer" style=""><title>Layer 1</title><g id="svg_1" class="selected" fill-opacity="1" fill="#1a192b">
	<g id="svg_2" fill="#1a192b">
		<path d="M183.2541005373001,37.07110053730011 H37.07610053730011 c-9.9,0 -18.464,3.619 -25.697,10.854 C4.14610053730011,55.14910053730011 0.5291005373001099,63.72110053730011 0.5291005373001099,73.61610053730011 v109.636 c0,9.897 3.617,18.464 10.85,25.693 c7.232,7.236 15.796,10.854 25.697,10.854 h146.178 c9.9,0 18.464,-3.621 25.697,-10.854 c7.233,-7.229 10.85,-15.796 10.85,-25.693 V73.61610053730011 c0,-9.895 -3.617,-18.464 -10.85,-25.692 C201.7181005373001,40.68710053730011 193.15110053730012,37.07110053730011 183.2541005373001,37.07110053730011 z" id="svg_3" fill="#1a192b"/>
		<path d="M183.2541005373001,256.3421005373001 H37.07610053730011 c-9.9,0 -18.464,3.621 -25.697,10.852 C4.14610053730011,274.4251005373001 0.5291005373001099,282.9911005373001 0.5291005373001099,292.8871005373001 v109.636 c0,9.897 3.617,18.467 10.85,25.694 c7.232,7.234 15.796,10.852 25.697,10.852 h146.178 c9.9,0 18.464,-3.617 25.697,-10.852 c7.233,-7.228 10.85,-15.797 10.85,-25.694 V292.8871005373001 c0,-9.896 -3.617,-18.462 -10.85,-25.693 C201.7181005373001,259.9571005373001 193.15110053730012,256.3421005373001 183.2541005373001,256.3421005373001 z" id="svg_4" fill="#1a192b"/>
		<path d="M464.7591005373001,47.92510053730011 c-7.225,-7.238 -15.797,-10.854 -25.694,-10.854 H292.8841005373001 c-9.896,0 -18.463,3.619 -25.693,10.854 c-7.234,7.224 -10.852,15.797 -10.852,25.692 v109.636 c0,9.897 3.617,18.464 10.852,25.693 c7.23,7.236 15.797,10.854 25.693,10.854 h146.181 c9.897,0 18.47,-3.621 25.694,-10.854 c7.234,-7.229 10.852,-15.796 10.852,-25.693 V73.61610053730011 C475.6111005373001,63.72110053730011 471.9961005373001,55.15510053730011 464.7591005373001,47.92510053730011 z" id="svg_5" fill="#1a192b"/>
		<path d="M439.0651005373001,256.3421005373001 H292.8841005373001 c-9.896,0 -18.463,3.621 -25.693,10.852 c-7.234,7.231 -10.852,15.797 -10.852,25.693 v109.636 c0,9.897 3.617,18.467 10.852,25.694 c7.23,7.234 15.797,10.852 25.693,10.852 h146.181 c9.897,0 18.47,-3.617 25.694,-10.852 c7.234,-7.228 10.852,-15.797 10.852,-25.694 V292.8871005373001 c0,-9.896 -3.614,-18.462 -10.852,-25.693 C457.5341005373001,259.9571005373001 448.9691005373001,256.3421005373001 439.0651005373001,256.3421005373001 z" id="svg_6" fill="#1a192b"/>
	</g>
</g><g id="svg_7">
</g><g id="svg_8">
</g><g id="svg_9">
</g><g id="svg_10">
</g><g id="svg_11">
</g><g id="svg_12">
</g><g id="svg_13">
</g><g id="svg_14">
</g><g id="svg_15">
</g><g id="svg_16">
</g><g id="svg_17">
</g><g id="svg_18">
</g><g id="svg_19">
</g><g id="svg_20">
</g><g id="svg_21">
</g></g></svg>