<svg xmlns="http://www.w3.org/2000/svg" version="1.1" width="402.577"
     height="402.577" style="enable-background:new 0 0 402.577 402.577;" xml:space="preserve"><rect id="backgroundrect" width="100%" height="100%" x="0" y="0" fill="none" stroke="none"/>


    <g class="currentLayer" style=""><title>Layer 1</title>
        <g id="svg_1" class="selected" fill-opacity="1" fill="#1a192b">
	<path d="M400.858,25.427 c-3.241,-7.421 -8.85,-11.132 -16.854,-11.136 H18.564 c-7.993,0 -13.61,3.715 -16.846,11.136 c-3.234,7.801 -1.903,14.467 3.999,19.985 l140.757,140.753 v138.755 c0,4.955 1.8090000000000002,9.232 5.424,12.854 l73.085,73.083 c3.4290000000000003,3.614 7.71,5.428 12.851,5.428 c2.282,0 4.66,-0.47900000000000004 7.135,-1.4300000000000002 c7.426,-3.238 11.14,-8.851 11.14,-16.845 V186.166 L396.861,45.413 C402.765,39.894999999999996 404.093,33.231 400.858,25.427 z"
          id="svg_2" fill="#1a192b"/>
</g>
        <g id="svg_3">
</g>
        <g id="svg_4">
</g>
        <g id="svg_5">
</g>
        <g id="svg_6">
</g>
        <g id="svg_7">
</g>
        <g id="svg_8">
</g>
        <g id="svg_9">
</g>
        <g id="svg_10">
</g>
        <g id="svg_11">
</g>
        <g id="svg_12">
</g>
        <g id="svg_13">
</g>
        <g id="svg_14">
</g>
        <g id="svg_15">
</g>
        <g id="svg_16">
</g>
        <g id="svg_17">
</g></g></svg>