<svg xmlns="http://www.w3.org/2000/svg" xmlns:xlink="http://www.w3.org/1999/xlink" version="1.1" width="292.359" height="292.359" style="" xml:space="preserve"><rect id="backgroundrect" width="100%" height="100%" x="0" y="0" fill="none" stroke="none"/>
















<g class="currentLayer" style=""><title>Layer 1</title><g id="svg_1" class="selected" fill-opacity="1" fill="#1a192b">
	<path d="M222.979,5.424C219.364,1.807,215.08,0,210.132,0c-4.949,0-9.233,1.807-12.848,5.424L69.378,133.331   c-3.615,3.617-5.424,7.898-5.424,12.847c0,4.949,1.809,9.233,5.424,12.847l127.906,127.907c3.614,3.617,7.898,5.428,12.848,5.428   c4.948,0,9.232-1.811,12.847-5.428c3.617-3.614,5.427-7.898,5.427-12.847V18.271C228.405,13.322,226.596,9.042,222.979,5.424z" id="svg_2" fill="#1a192b"/>
</g><g id="svg_3">
</g><g id="svg_4">
</g><g id="svg_5">
</g><g id="svg_6">
</g><g id="svg_7">
</g><g id="svg_8">
</g><g id="svg_9">
</g><g id="svg_10">
</g><g id="svg_11">
</g><g id="svg_12">
</g><g id="svg_13">
</g><g id="svg_14">
</g><g id="svg_15">
</g><g id="svg_16">
</g><g id="svg_17">
</g></g></svg>