<svg xmlns="http://www.w3.org/2000/svg" xmlns:xlink="http://www.w3.org/1999/xlink" version="1.1" width="328.911" height="328.911" style="enable-background:new 0 0 328.911 328.911;" xml:space="preserve"><rect id="backgroundrect" width="100%" height="100%" x="0" y="0" fill="none" stroke="none"/>
















<g class="currentLayer" style=""><title>Layer 1</title><g id="svg_1" class="selected" fill-opacity="1" fill="#990000">
	<g id="svg_2" fill="#990000" fill-opacity="1">
		<path d="M323.206,31.71 C310.735,19.242 295.657,13.007 277.958,13.007 H76.95400000000001 c-17.703,0 -32.79,6.235 -45.253,18.704 C19.235,44.177 13,59.261 13,76.96000000000001 v200.991 c0,17.515 6.232,32.552 18.701,45.11 c12.467,12.566 27.553,18.843 45.253,18.843 h201.004 c17.699,0 32.777,-6.276 45.248,-18.843 c12.47,-12.559 18.705,-27.596 18.705,-45.11 V76.96000000000001 C341.911,59.261 335.672,44.177 323.206,31.71 zM305.362,277.96 c0,7.614 -2.673,14.089 -8.001,19.414 c-5.324,5.332 -11.799,7.994 -19.41,7.994 H76.95400000000001 c-7.614,0 -14.082,-2.662 -19.414,-7.994 c-5.33,-5.325 -7.992,-11.8 -7.992,-19.414 V76.965 c0,-7.613 2.662,-14.086 7.992,-19.414 c5.327,-5.327 11.8,-7.994 19.414,-7.994 h201.004 c7.61,0 14.086,2.6630000000000003 19.41,7.994 c5.325,5.328 7.994,11.801 7.994,19.414 V277.96 z" id="svg_3" fill="#990000" fill-opacity="1"/>
		<path d="M259.683,159.189 H95.229 c-2.664,0 -4.8580000000000005,0.8550000000000001 -6.567,2.568 c-1.711,1.713 -2.568,3.903 -2.568,6.567 v18.271 c0,2.6660000000000004 0.8540000000000001,4.855 2.568,6.563 c1.713,1.7080000000000002 3.903,2.5700000000000003 6.567,2.5700000000000003 h164.454 c2.662,0 4.853,-0.8620000000000001 6.563,-2.5700000000000003 c1.7120000000000002,-1.7080000000000002 2.563,-3.8970000000000002 2.563,-6.563 v-18.271 c0,-2.664 -0.8520000000000001,-4.857 -2.563,-6.567 C264.536,160.048 262.345,159.189 259.683,159.189 z" id="svg_4" fill="#990000" fill-opacity="1"/>
	</g>
</g><g id="svg_5">
</g><g id="svg_6">
</g><g id="svg_7">
</g><g id="svg_8">
</g><g id="svg_9">
</g><g id="svg_10">
</g><g id="svg_11">
</g><g id="svg_12">
</g><g id="svg_13">
</g><g id="svg_14">
</g><g id="svg_15">
</g><g id="svg_16">
</g><g id="svg_17">
</g><g id="svg_18">
</g><g id="svg_19">
</g></g></svg>