<svg xmlns="http://www.w3.org/2000/svg" version="1.1" width="548.172"
     height="548.172" style="enable-background:new 0 0 548.172 548.172;" xml:space="preserve"><rect id="backgroundrect" width="100%" height="100%" x="0" y="0" fill="none" stroke="none"/>


    <g class="currentLayer" style=""><title>Layer 1</title>
        <g id="svg_1" class="selected" fill-opacity="1" fill="#1a192b">
	<g id="svg_2" fill="#1a192b">
		<path d="M333.186,390.438 c0,-1.9020000000000001 -0.6680000000000001,-3.806 -1.999,-5.708 c-10.66,-12.758000000000001 -19.223,-23.702 -25.697,-32.832 c3.997,-7.803 7.043,-15.037 9.131,-21.693 l44.255,-6.852 c1.718,-0.19400000000000003 3.241,-1.19 4.572,-2.9939999999999998 c1.331,-1.816 1.991,-3.668 1.991,-5.571 v-52.822 c0,-2.091 -0.6600000000000001,-3.949 -1.991,-5.564 s-2.95,-2.6180000000000003 -4.853,-2.993 l-43.4,-6.567 c-2.098,-6.473 -5.331,-14.281 -9.708,-23.413 c2.851,-4.19 7.139,-9.902 12.85,-17.131 c5.709,-7.234 9.713000000000001,-12.371 11.991,-15.417 c1.335,-1.903 1.999,-3.713 1.999,-5.424 c0,-5.14 -13.706,-20.367 -41.107,-45.683 c-1.9020000000000001,-1.52 -3.901,-2.281 -6.002,-2.281 c-2.279,0 -4.182,0.6590000000000001 -5.712,1.9969999999999999 L245.815,164.9 c-7.801,-3.996 -14.939,-6.945 -21.411,-8.854 l-6.567,-43.68 c-0.18700000000000003,-1.903 -1.1400000000000001,-3.571 -2.853,-4.997 c-1.714,-1.427 -3.617,-2.142 -5.713,-2.142 h-53.1 c-4.377,0 -7.232,2.284 -8.564,6.851 c-2.286,8.757 -4.473,23.416 -6.567,43.968 c-8.183,2.664 -15.511,5.71 -21.982,9.136 l-32.832,-25.693 c-1.903,-1.335 -3.901,-1.9969999999999999 -5.996,-1.9969999999999999 c-3.621,0 -11.138,5.614 -22.557,16.846 c-11.421,11.228 -19.229,19.698 -23.413,25.409 c-1.334,1.525 -1.9969999999999999,3.428 -1.9969999999999999,5.712 c0,1.711 0.6620000000000001,3.614 1.9969999999999999,5.708 c10.657,12.756 19.221,23.7 25.694,32.832 c-3.996,7.808 -7.04,15.037 -9.132,21.698 l-44.255,6.848 c-1.715,0.19000000000000003 -3.236,1.188 -4.57,2.993 C0.6660000000000001,257.35 0,259.203 0,261.105 v52.819 c0,2.095 0.6660000000000001,3.949 1.9969999999999999,5.564 c1.334,1.622 2.95,2.525 4.857,2.714 l43.396,6.852 c2.284,7.23 5.618,15.037 9.995,23.411 c-3.046,4.191 -7.517,9.999 -13.418,17.418 c-5.905,7.427 -9.805,12.471 -11.707,15.133 c-1.332,1.903 -1.999,3.717 -1.999,5.421 c0,5.147 13.706,20.369 41.114,45.687 c1.903,1.5190000000000001 3.899,2.275 5.996,2.275 c2.474,0 4.377,-0.6600000000000001 5.708,-1.995 l33.689,-25.406 c7.801,3.997 14.939,6.943 21.413,8.847 l6.567,43.684 c0.18800000000000003,1.9020000000000001 1.142,3.572 2.853,4.996 c1.713,1.427 3.616,2.1390000000000002 5.711,2.1390000000000002 h53.1 c4.38,0 7.233,-2.282 8.566,-6.851 c2.284,-8.949 4.471,-23.698 6.567,-44.256 c7.611,-2.275 14.938,-5.235 21.982,-8.846 l32.833,25.693 c1.903,1.335 3.901,1.995 5.996,1.995 c3.617,0 11.091,-5.66 22.415,-16.991 c11.32,-11.317 19.175,-19.842 23.555,-25.55 C332.518,394.53 333.186,392.724 333.186,390.438 zM234.397,339.626 c-14.272,14.27 -31.499,21.408 -51.673,21.408 c-20.179,0 -37.406,-7.139 -51.678,-21.408 c-14.274000000000001,-14.277 -21.412,-31.505 -21.412,-51.68 c0,-20.174 7.138,-37.401 21.412,-51.675 c14.272,-14.275 31.5,-21.411 51.678,-21.411 c20.174,0 37.401,7.135 51.673,21.411 c14.277,14.274000000000001 21.413,31.501 21.413,51.675 C255.81,308.121 248.675,325.349 234.397,339.626 z"
              id="svg_3" fill="#1a192b"/>
        <path d="M505.628,405.29 c-2.471,-5.517 -5.329,-10.465 -8.562,-14.846 c9.709,-21.512 14.558,-34.646 14.558,-39.402 c0,-0.7530000000000001 -0.37300000000000005,-1.424 -1.1400000000000001,-1.995 c-22.846,-13.322 -34.643,-19.985 -35.405,-19.985 l-1.711,0.5740000000000001 c-7.803,7.807 -16.563,18.463 -26.266,31.977 c-3.805,-0.37900000000000006 -6.656000000000001,-0.5740000000000001 -8.559,-0.5740000000000001 c-1.909,0 -4.76,0.19500000000000003 -8.569,0.5740000000000001 c-2.6550000000000002,-4 -7.61,-10.427 -14.842,-19.273 c-7.23,-8.846 -11.611,-13.277 -13.134,-13.277 c-0.38000000000000006,0 -3.234,1.522 -8.566,4.575 c-5.328,3.046 -10.943,6.276 -16.844,9.709 c-5.906,3.433 -9.229,5.328 -9.992,5.711 c-0.7670000000000001,0.5680000000000001 -1.1440000000000001,1.239 -1.1440000000000001,1.992 c0,4.764 4.853,17.888 14.559,39.402 c-3.23,4.381 -6.089,9.329 -8.562,14.842 c-28.363,2.851 -42.544,5.805 -42.544,8.85 v39.968 c0,3.046 14.181,5.996 42.544,8.85 c2.279,5.141 5.1370000000000005,10.089 8.562,14.839 c-9.706,21.512 -14.559,34.646 -14.559,39.402 c0,0.7600000000000001 0.37700000000000006,1.431 1.1440000000000001,1.999 c23.216,13.514 35.022,20.27 35.402,20.27 c1.522,0 5.9030000000000005,-4.473 13.134,-13.419 c7.231,-8.948 12.18,-15.413 14.842,-19.41 c3.806,0.37300000000000005 6.66,0.5640000000000001 8.569,0.5640000000000001 c1.9020000000000001,0 4.7540000000000004,-0.19100000000000003 8.559,-0.5640000000000001 c2.6590000000000003,3.997 7.611,10.462 14.842,19.41 c7.231,8.946 11.608,13.419 13.135,13.419 c0.38000000000000006,0 12.187,-6.759 35.405,-20.27 c0.7670000000000001,-0.5680000000000001 1.1400000000000001,-1.235 1.1400000000000001,-1.999 c0,-4.757 -4.855,-17.891000000000002 -14.558,-39.402 c3.426,-4.75 6.279,-9.698 8.562,-14.839 c28.362,-2.854 42.544,-5.804 42.544,-8.85 v-39.968 C548.172,411.098 533.99,408.144 505.628,405.29 zM464.37,459.962 c-7.128,7.139 -15.745000000000001,10.715 -25.834,10.715 c-10.092,0 -18.705,-3.576 -25.837,-10.715 c-7.139,-7.139 -10.712,-15.748 -10.712,-25.837 c0,-9.894 3.621,-18.466 10.855,-25.693 c7.23,-7.231 15.797,-10.849 25.693,-10.849 c9.894,0 18.466,3.614 25.7,10.849 c7.228,7.228 10.849,15.8 10.849,25.693 C475.078,444.214 471.512,452.823 464.37,459.962 z"
              id="svg_4" fill="#1a192b"/>
        <path d="M505.628,112.931 c-2.471,-5.52 -5.329,-10.468 -8.562,-14.849 c9.709,-21.505 14.558,-34.639 14.558,-39.397 c0,-0.7580000000000001 -0.37300000000000005,-1.427 -1.1400000000000001,-1.999 c-22.846,-13.323 -34.643,-19.984 -35.405,-19.984 l-1.711,0.5700000000000001 c-7.803,7.808 -16.563,18.464 -26.266,31.977 c-3.805,-0.37800000000000006 -6.656000000000001,-0.5700000000000001 -8.559,-0.5700000000000001 c-1.909,0 -4.76,0.19200000000000003 -8.569,0.5700000000000001 c-2.6550000000000002,-3.997 -7.61,-10.42 -14.842,-19.27 c-7.23,-8.852 -11.611,-13.276 -13.134,-13.276 c-0.38000000000000006,0 -3.234,1.521 -8.566,4.569 c-5.328,3.049 -10.943,6.283 -16.844,9.71 c-5.906,3.428 -9.229,5.33 -9.992,5.708 c-0.7670000000000001,0.5710000000000001 -1.1440000000000001,1.237 -1.1440000000000001,1.999 c0,4.758 4.853,17.893 14.559,39.399 c-3.23,4.38 -6.089,9.327 -8.562,14.847 c-28.363,2.853 -42.544,5.802 -42.544,8.848 v39.971 c0,3.044 14.181,5.996 42.544,8.848 c2.279,5.1370000000000005 5.1370000000000005,10.088 8.562,14.847 c-9.706,21.51 -14.559,34.639 -14.559,39.399 c0,0.7570000000000001 0.37700000000000006,1.4260000000000002 1.1440000000000001,1.9969999999999999 c23.216,13.513 35.022,20.27 35.402,20.27 c1.522,0 5.9030000000000005,-4.471 13.134,-13.418 c7.231,-8.947 12.18,-15.415 14.842,-19.414 c3.806,0.37800000000000006 6.66,0.5710000000000001 8.569,0.5710000000000001 c1.9020000000000001,0 4.7540000000000004,-0.19300000000000003 8.559,-0.5710000000000001 c2.6590000000000003,3.999 7.611,10.466 14.842,19.414 c7.231,8.947 11.608,13.418 13.135,13.418 c0.38000000000000006,0 12.187,-6.757 35.405,-20.27 c0.7670000000000001,-0.5710000000000001 1.1400000000000001,-1.237 1.1400000000000001,-1.9969999999999999 c0,-4.76 -4.855,-17.889 -14.558,-39.399 c3.426,-4.759 6.279,-9.707 8.562,-14.847 c28.362,-2.853 42.544,-5.804 42.544,-8.848 v-39.971 C548.172,118.737 533.99,115.787 505.628,112.931 zM464.37,167.605 c-7.128,7.139 -15.745000000000001,10.708 -25.834,10.708 c-10.092,0 -18.705,-3.569 -25.837,-10.708 c-7.139,-7.135 -10.712,-15.749 -10.712,-25.837 c0,-9.897 3.621,-18.464 10.855,-25.697 c7.23,-7.233 15.797,-10.85 25.693,-10.85 c9.894,0 18.466,3.621 25.7,10.85 c7.228,7.232 10.849,15.8 10.849,25.697 C475.078,151.856 471.512,160.47 464.37,167.605 z"
              id="svg_5" fill="#1a192b"/>
	</g>
</g>
        <g id="svg_6">
</g>
        <g id="svg_7">
</g>
        <g id="svg_8">
</g>
        <g id="svg_9">
</g>
        <g id="svg_10">
</g>
        <g id="svg_11">
</g>
        <g id="svg_12">
</g>
        <g id="svg_13">
</g>
        <g id="svg_14">
</g>
        <g id="svg_15">
</g>
        <g id="svg_16">
</g>
        <g id="svg_17">
</g>
        <g id="svg_18">
</g>
        <g id="svg_19">
</g>
        <g id="svg_20">
</g></g></svg>